<svg width="680" height="150" viewBox="0 0 580 120" fill="none" xmlns="http://www.w3.org/2000/svg">
<rect x="-60" width="120" height="120" rx="60" fill="#FFADF2"/>
<g clip-path="url(#clip0_64_144)">
<path d="M22.3688 69.8094C27.3324 57.5538 21.4211 43.5949 9.16547 38.6313C-3.09013 33.6677 -17.049 39.5791 -22.0126 51.8347C-26.9762 64.0903 -21.0649 78.0492 -8.80928 83.0128C3.44632 87.9764 17.4052 82.065 22.3688 69.8094Z" fill="#C622AC"/>
<path d="M17.2437 70.6412C17.199 68.5019 16.3148 66.2694 14.5125 65.1162C14.0328 64.8091 13.5068 64.5924 12.958 64.4552C13.13 63.8633 13.2683 63.2671 13.3516 62.6698C13.6369 60.6241 13.5504 58.4745 13.6304 56.413C13.7328 53.7706 13.8215 51.1276 13.8798 48.4841C13.9451 45.5264 13.9723 42.5677 13.938 39.6089C13.9223 38.2591 13.8825 36.8614 13.2988 35.6444C12.7151 34.427 11.4323 33.4382 10.0966 33.632C9.02018 33.7883 8.16152 34.6714 7.72919 35.6695C7.29687 36.6675 7.21574 37.7772 7.14005 38.8624C6.91572 42.0918 6.69085 45.3212 6.46651 48.5506C6.33965 50.3752 6.1959 52.2607 5.3405 53.8773C4.6381 53.6018 4.21395 52.692 4.10559 51.9449C3.10917 45.044 2.35505 38.2068 1.61018 31.9958C1.50074 31.0849 1.02105 30.2295 0.400867 29.5532C-0.219309 28.8769 -1.1455 28.4321 -2.05262 28.5693C-3.84237 28.8399 -4.13204 31.344 -4.41463 32.7728C-4.83443 34.8985 -4.16743 47.754 -5.00214 52.0985C-5.11103 52.6653 -5.4851 53.0105 -6.05464 53.1041C-7.14798 53.2844 -9.78278 44.9667 -11.3471 41.0491C-11.848 39.7946 -12.3691 38.4916 -13.3585 37.5714C-13.7881 37.1718 -14.3407 36.8461 -14.9261 36.8859C-16.0788 36.9648 -16.626 38.3206 -16.8084 39.4613C-17.3496 42.847 -13.6912 58.3493 -12.8113 63.663C-12.9702 63.6962 -13.1281 63.7343 -13.285 63.7789C-14.3935 64.0936 -15.452 64.7263 -16.0597 65.7053C-17.0142 67.2435 -16.6695 69.2353 -16.1381 70.9657C-14.6489 75.81 -11.97 80.191 -9.24809 84.4664C-8.74934 85.2499 -8.23479 86.047 -7.51061 86.6291C-6.75976 87.2324 -5.8314 87.5662 -4.9074 87.8379C-2.31343 88.6002 0.400316 88.953 3.10263 88.88C4.3321 88.8468 5.56973 88.7238 6.74311 88.3552C9.16556 87.5934 11.1726 85.8162 12.6264 83.7346C14.0801 81.653 15.0341 79.2676 15.8922 76.8778C16.6159 74.8643 17.2883 72.7805 17.2437 70.6412Z" fill="#FFADF2"/>
<path d="M-4.15056 60.5205C-5.63321 59.5779 -7.13492 58.6567 -8.7281 57.9156C-9.51326 57.5503 -10.3382 57.2252 -11.2028 57.1844C-11.5595 57.1675 -11.9466 57.2116 -12.2118 57.4506C-12.4688 57.6826 -12.5559 58.0463 -12.6016 58.3893C-12.9104 60.698 -11.9439 63.0398 -10.452 64.8285C-8.96006 66.6172 -6.983 67.9294 -4.98036 69.118C-3.99755 69.7012 -2.99078 70.2658 -1.89581 70.593C-0.800834 70.9197 0.40086 70.9949 1.47297 70.6001C1.84649 70.4624 2.20259 70.268 2.49661 69.9995C2.83747 69.6881 3.08739 69.2808 3.22133 68.8392C3.79631 66.9455 1.98152 65.2793 0.73518 64.1158C-0.746385 62.7317 -2.44466 61.6051 -4.15056 60.5205Z" fill="#FFADF2"/>
<path d="M19.0835 64.8755C19.1211 63.5028 19.035 62.0871 18.4519 60.844C17.8687 59.601 16.6964 58.5588 15.3265 58.469C13.7251 58.3639 12.3122 59.5356 11.3784 60.8408C9.18624 63.9041 8.68476 67.9366 9.29677 71.6533C9.47047 72.7074 9.73291 73.7627 10.2594 74.6921C10.786 75.6216 11.6038 76.4203 12.6204 76.7481C13.5536 77.0492 14.5626 76.8935 15.4103 76.4247C16.1138 76.0354 16.3675 75.5475 16.703 74.8353C17.6411 72.8447 18.3158 70.732 18.7034 68.5655C18.9223 67.3469 19.0497 66.1126 19.0835 64.8755Z" fill="#FFADF2"/>
<path d="M11.0245 66.6487C10.6188 66.842 10.2034 67.0277 9.76015 67.1034C9.37247 67.1698 8.97444 67.1497 8.58404 67.1001C7.93827 67.0185 7.29251 66.8518 6.73495 66.5159C6.17739 66.1799 5.71239 65.6594 5.53543 65.0327C5.3552 64.394 5.48806 63.6943 5.80006 63.1085C6.11205 62.5226 6.59011 62.0402 7.11065 61.6291C8.65646 60.4072 10.5736 59.7702 12.4619 59.2072C13.2591 58.9698 14.0802 58.7389 14.9094 58.8021C15.4643 58.8445 16.0621 59.0656 16.3104 59.5633C16.5456 60.0348 16.3975 60.6022 16.2037 61.0922C15.1882 63.6611 13.5095 65.4645 11.0245 66.6487Z" fill="#FFADF2"/>
<path d="M9.9714 37.6913C9.97032 37.9298 9.77593 38.1225 9.53745 38.122C9.29896 38.1209 9.10621 37.927 9.10675 37.688C9.10784 37.4495 9.30168 37.2568 9.54071 37.2573C9.7792 37.2584 9.97195 37.4523 9.9714 37.6913Z" fill="#C622AC"/>
<path d="M0.367645 34.1278C0.366556 34.3663 0.172174 34.559 -0.0663143 34.5585C-0.304802 34.5574 -0.497553 34.3636 -0.497008 34.1245C-0.495919 33.886 -0.302081 33.6933 -0.0630491 33.6938C0.175983 33.6949 0.368734 33.8888 0.367645 34.1278Z" fill="#C622AC"/>
<path d="M12.0944 37.66C12.0933 37.8985 11.8995 38.0913 11.6604 38.0907C11.4219 38.0896 11.2292 37.8958 11.2297 37.6568C11.2308 37.4183 11.4252 37.2255 11.6637 37.2261C11.9022 37.2272 12.0949 37.4215 12.0944 37.66Z" fill="#C622AC"/>
<path d="M-2.11688 35.4258C-1.64317 36.0617 -0.572157 36.1162 -0.0363766 35.5314" stroke="#C622AC" stroke-width="0.6873" stroke-miterlimit="10" stroke-linecap="round" stroke-linejoin="round"/>
<path d="M9.44379 39.115C9.66648 39.5937 10.1952 39.9122 10.7223 39.8839C11.2493 39.8561 11.7421 39.4837 11.9125 38.9844" stroke="#C622AC" stroke-width="0.6873" stroke-miterlimit="10" stroke-linecap="round" stroke-linejoin="round"/>
<path d="M-1.56259 63.7034C-2.23504 64.1853 -2.96575 64.7647 -3.02129 65.5623C-3.06648 66.2092 -2.64559 66.8032 -2.21 67.3129C-1.38074 68.2826 0.462372 69.7691 1.29654 69.3531C1.63358 69.1849 1.79965 68.8495 1.82578 68.4939C1.91181 67.3205 1.46969 66.17 0.792338 65.1894C0.447674 64.6906 0.027873 64.2665 -0.385397 63.82C-0.776887 63.3964 -1.03716 63.3267 -1.56259 63.7034Z" fill="#C622AC"/>
<path d="M4.53954 65.0784C5.30292 66.4614 6.74147 65.6974 7.67528 65.2983C8.43484 64.9733 9.24396 64.5279 9.51021 63.7454C9.66757 63.2826 9.60169 62.7626 9.40077 62.3167C9.2053 61.8838 8.83123 61.3382 8.41741 61.0845C8.04117 60.8536 7.57563 61.2037 7.22226 61.3883C6.36523 61.8359 5.56427 62.4234 4.95444 63.1792C4.62284 63.5903 3.91065 63.9393 4.53954 65.0784Z" fill="#C622AC"/>
<path d="M-4.18922 77.9797C-3.20695 72.8708 -7.15071 67.7422 -7.15071 67.7422C-7.15071 67.7422 -2.77735 71.4061 0.762943 71.1518" stroke="#C622AC" stroke-width="1.1455" stroke-miterlimit="10" stroke-linecap="round" stroke-linejoin="round"/>
<path d="M0.72592 71.185C1.64666 70.6476 2.17808 69.5766 2.23307 68.5121C2.28806 67.4476 1.91672 66.3956 1.36624 65.4831C0.815758 64.5705 0.315917 63.9078 -0.485031 63.2044C-2.99514 61.0013 -5.91526 59.2666 -9.05045 58.1161C-9.82363 57.8324 -10.6262 57.5814 -11.4495 57.5895C-12.2728 57.5983 -14.5204 57.669 -16.6309 63.133" stroke="#C622AC" stroke-width="1.1455" stroke-miterlimit="10" stroke-linecap="round" stroke-linejoin="round"/>
<path d="M4.73175 63.2158C3.22132 68.8388 9.9861 66.6434 11.5417 65.9176C13.0979 65.1918 14.0807 64.4752 14.0807 64.4752" stroke="#C622AC" stroke-width="1.1455" stroke-miterlimit="10" stroke-linecap="round" stroke-linejoin="round"/>
<path d="M4.73175 63.2161C6.92224 61.5276 9.40948 60.2257 12.0454 59.3878C13.8738 58.8062 16.0643 58.5122 17.5486 59.7281C19.0307 60.9423 19.1755 63.1344 19.0394 65.0456C18.5744 71.5953 16.2156 77.9375 12.7156 83.493" stroke="#C622AC" stroke-width="1.1455" stroke-miterlimit="10" stroke-linecap="round" stroke-linejoin="round"/>
<path d="M12.383 68.4835C12.438 68.8081 12.7369 65.8874 14.0812 64.4761" stroke="#C622AC" stroke-width="1.1455" stroke-miterlimit="10" stroke-linecap="round" stroke-linejoin="round"/>
<path d="M-2.08148 28.7124C-0.47904 28.9095 0.81903 30.2005 1.48113 31.6734C2.14269 33.1457 2.28099 34.7917 2.41058 36.4012C2.73292 40.4125 3.05526 44.4237 3.37814 48.435C3.5257 50.2678 3.80231 52.6532 5.30021 53.7188" stroke="#C622AC" stroke-width="1.1455" stroke-miterlimit="10" stroke-linecap="round" stroke-linejoin="round"/>
<path d="M7.32353 37.4081C7.32353 37.4081 7.67964 35.559 8.28293 34.7287C8.88623 33.8983 9.93819 33.3571 10.9493 33.534C11.9033 33.7012 12.6694 34.4635 13.0848 35.3379C13.5008 36.2124 13.6206 37.1947 13.7126 38.1584C14.3736 45.086 13.8792 52.0658 13.3843 59.007" stroke="#C622AC" stroke-width="1.1455" stroke-miterlimit="10" stroke-linecap="round" stroke-linejoin="round"/>
<path d="M6.07065 52.4538C6.41368 50.9342 6.43709 48.1943 6.59826 46.6447C6.59826 46.6447 7.10082 41.0734 7.10736 39.3218" stroke="#C622AC" stroke-width="1.1455" stroke-miterlimit="10" stroke-linecap="round" stroke-linejoin="round"/>
<path d="M11.6697 60.5508C11.7753 60.6575 11.8809 60.7637 11.9871 60.8704" stroke="#C622AC" stroke-width="1.1455" stroke-miterlimit="10" stroke-linecap="round" stroke-linejoin="round"/>
<path d="M12.9449 60.2368C13.191 60.5918 13.4376 60.9463 13.6838 61.3013" stroke="#C622AC" stroke-width="1.1455" stroke-miterlimit="10" stroke-linecap="round" stroke-linejoin="round"/>
<path d="M-2.71745 71.0381C0.724829 72.6863 3.36562 75.9233 4.28854 79.6269" stroke="#C622AC" stroke-width="1.1455" stroke-miterlimit="10" stroke-linecap="round" stroke-linejoin="round"/>
<path d="M2.3006 71.7206C4.2232 69.6619 7.03986 68.4689 9.85652 68.5207" stroke="#C622AC" stroke-width="1.1455" stroke-miterlimit="10" stroke-linecap="round" stroke-linejoin="round"/>
<path d="M9.95016 44.542C10.364 44.5436 10.7772 44.5453 11.1911 44.5469" stroke="#C622AC" stroke-width="1.1455" stroke-miterlimit="10" stroke-linecap="round" stroke-linejoin="round"/>
<path d="M9.57501 49.8589C10.1059 50.038 10.6373 50.2177 11.1682 50.3968" stroke="#C622AC" stroke-width="1.1455" stroke-miterlimit="10" stroke-linecap="round" stroke-linejoin="round"/>
<path d="M-1.7695 49.6372C-1.29688 49.6388 -0.824264 49.641 -0.3511 49.6426" stroke="#C622AC" stroke-width="1.1455" stroke-miterlimit="10" stroke-linecap="round" stroke-linejoin="round"/>
<path d="M-4.6564 57.46C-2.95813 60.0599 1.9777 62.6501 5.73252 62.502" stroke="#C622AC" stroke-width="1.1455" stroke-miterlimit="10" stroke-linecap="round" stroke-linejoin="round"/>
</g>
<rect x="76" width="120" height="120" rx="60" fill="#FFADF2"/>
<g clip-path="url(#clip1_64_144)">
<path d="M136.875 91.2717C143.705 90.8694 148.916 85.0062 148.514 78.176C148.112 71.3458 142.249 66.1349 135.418 66.5372C128.588 66.9395 123.377 72.8026 123.779 79.6329C124.182 86.4631 130.045 91.674 136.875 91.2717Z" fill="white"/>
<path d="M132.971 76.4269C132.969 77.0084 132.495 77.4778 131.914 77.4758C131.332 77.4739 130.863 77.0007 130.865 76.4185C130.867 75.837 131.341 75.3677 131.922 75.3696C132.504 75.3722 132.974 75.8455 132.971 76.4269Z" fill="#C622AC"/>
<path d="M141.724 76.4606C141.721 77.0421 141.248 77.5115 140.667 77.5095C140.085 77.5076 139.616 77.0337 139.618 76.4522C139.62 75.8707 140.093 75.4014 140.675 75.4033C141.256 75.4059 141.726 75.8791 141.724 76.4606Z" fill="#C622AC"/>
<path d="M129.985 46.9633C134.633 51.9841 134.332 59.8223 129.311 64.4703C124.29 69.1184 116.452 68.8163 111.804 63.7961C107.156 58.7753 107.457 50.9372 112.478 46.2892C117.499 41.6411 125.337 41.9426 129.985 46.9633Z" fill="#C622AC"/>
<path d="M116.899 55.7379C117.294 56.1645 117.269 56.8309 116.842 57.2257C116.415 57.6205 115.749 57.5952 115.354 57.1687C114.959 56.7421 114.984 56.0757 115.411 55.6809C115.838 55.2855 116.504 55.3114 116.899 55.7379Z" fill="white"/>
<path d="M123.322 49.7914C123.716 50.218 123.691 50.8844 123.264 51.2792C122.837 51.674 122.171 51.6487 121.776 51.2221C121.381 50.7956 121.407 50.1291 121.833 49.7344C122.26 49.3396 122.927 49.3648 123.322 49.7914Z" fill="white"/>
<path fill-rule="evenodd" clip-rule="evenodd" d="M126.364 54.0479C126.757 53.9372 127.165 54.1662 127.276 54.5593C127.849 56.594 127.263 58.7856 125.746 60.2472L125.746 60.2472C124.171 61.764 121.853 62.2446 119.791 61.4897C119.407 61.3492 119.21 60.9244 119.351 60.5409C119.491 60.1573 119.916 59.9602 120.3 60.1006C121.835 60.663 123.556 60.3021 124.72 59.1818C125.84 58.1022 126.279 56.4756 125.852 54.9603C125.741 54.5671 125.97 54.1586 126.364 54.0479Z" fill="white"/>
<path d="M142.536 47.0119C137.849 51.9964 138.09 59.8365 143.075 64.5234C148.059 69.2103 155.899 68.9692 160.586 63.9847C165.273 59.0002 165.032 51.1601 160.048 46.4732C155.063 41.7863 147.223 42.0274 142.536 47.0119Z" fill="#FF60E6"/>
<path d="M155.554 55.8879C155.155 56.3119 155.176 56.9776 155.6 57.3763C156.023 57.775 156.69 57.7543 157.088 57.3303C157.486 56.907 157.466 56.2406 157.042 55.8419C156.618 55.4439 155.952 55.4639 155.554 55.8879Z" fill="white"/>
<path d="M149.177 49.8918C148.778 50.3151 148.799 50.9815 149.222 51.3802C149.646 51.7789 150.313 51.7582 150.711 51.3342C151.109 50.9109 151.089 50.2445 150.665 49.8458C150.242 49.4478 149.576 49.4679 149.177 49.8918Z" fill="white"/>
<path d="M136.201 33.8968C135.771 32.6139 135.259 31.3375 134.443 30.2588C133.626 29.1801 132.471 28.3056 131.14 28.0644C128.906 27.6599 126.61 29.2112 125.74 31.309C124.871 33.4061 125.248 35.8675 126.296 37.8817C127.343 39.8958 128.997 41.5275 130.728 42.9958C132.46 44.4642 134.303 45.8112 135.884 47.4403C138.95 45.5487 141.88 42.7638 144.317 40.1098C145.702 38.6013 147.004 36.9138 147.481 34.9217C147.958 32.9296 147.416 30.5719 145.72 29.4219C144.102 28.3237 141.852 28.5934 140.156 29.569C138.46 30.5447 137.425 32.3708 136.201 33.8968Z" fill="white"/>
<path d="M162.169 81.4934C163.38 82.097 164.645 82.637 165.985 82.8224C167.325 83.0084 168.76 82.8094 169.873 82.0386C171.738 80.7453 172.265 78.0246 171.397 75.9268C170.528 73.829 168.522 72.3555 166.357 71.6722C164.191 70.989 161.869 71.0039 159.606 71.1899C157.344 71.376 155.088 71.7267 152.818 71.6923C151.986 75.1982 151.884 79.2394 152.038 82.8386C152.125 84.8851 152.397 86.9985 153.468 88.7442C154.539 90.49 156.59 91.7736 158.602 91.3885C160.523 91.0203 161.923 89.2389 162.433 87.3498C162.941 85.4614 162.383 83.4376 162.169 81.4934Z" fill="#C622AC"/>
<path d="M109.769 81.2902C108.554 81.8846 107.285 82.4143 105.943 82.5899C104.601 82.7656 103.168 82.5556 102.062 81.7764C100.206 80.4688 99.7009 77.7435 100.585 75.6529C101.47 73.5622 103.488 72.1043 105.658 71.4379C107.829 70.7715 110.151 70.8045 112.412 71.0081C114.673 71.2116 116.927 71.5799 119.197 71.563C120.001 75.0753 120.071 79.1166 119.89 82.7151C119.787 84.761 119.498 86.8724 118.414 88.6097C117.329 90.347 115.268 91.6151 113.259 91.2138C111.34 90.8307 109.955 89.0382 109.46 87.1459C108.966 85.2524 109.54 83.233 109.769 81.2902Z" fill="#FF60E6"/>
<path fill-rule="evenodd" clip-rule="evenodd" d="M153.172 60.9889C153.283 61.3821 153.054 61.7906 152.661 61.9013C150.626 62.4742 148.434 61.8884 146.973 60.3709L146.973 60.3709C145.456 58.796 144.975 56.4781 145.73 54.4162C145.871 54.0326 146.296 53.8355 146.679 53.976C147.063 54.1164 147.26 54.5412 147.119 54.9247C146.557 56.4607 146.918 58.1815 148.038 59.3448C149.118 60.4657 150.744 60.9041 152.26 60.4775C152.653 60.3667 153.061 60.5957 153.172 60.9889Z" fill="white"/>
<path fill-rule="evenodd" clip-rule="evenodd" d="M140.97 81.6303C141.327 81.83 141.453 82.2808 141.254 82.6371C140.22 84.4809 138.256 85.6164 136.15 85.5768L136.15 85.5768C133.963 85.5357 131.985 84.2366 131.06 82.2448C130.889 81.8742 131.05 81.4345 131.42 81.2626C131.791 81.0907 132.23 81.2517 132.402 81.6222C133.091 83.1059 134.563 84.0675 136.177 84.0979C137.733 84.1271 139.194 83.287 139.963 81.9138C140.163 81.5575 140.614 81.4305 140.97 81.6303Z" fill="#C622AC"/>
</g>
<rect x="212" width="120" height="120" rx="60" fill="#FFADF2"/>
<g clip-path="url(#clip2_64_144)">
<path d="M300.935 53.6804L273.04 28.8633C272.014 27.697 270.191 27.7153 269.188 28.901L242.606 53.5067C241.211 55.1564 242.378 57.6838 244.538 57.6924L247.492 57.7038C248.014 57.7061 248.436 58.1307 248.433 58.653L248.316 89.0673C248.311 90.4718 249.444 91.6147 250.85 91.6204L292.643 91.7827C294.047 91.7878 295.19 90.6536 295.196 89.2496L295.312 59.2998C295.315 58.521 295.948 57.8924 296.727 57.8953L299.016 57.9044C301.209 57.9124 302.384 55.3273 300.935 53.6804Z" fill="#C622AC"/>
<path d="M284.899 69.8792L272.006 82.6724L259.213 69.7792C255.179 66.1809 254.829 60.2255 257.771 56.7061C261.065 52.7655 268.009 52.4478 272.106 56.9861C275.605 53.5495 280.752 53.0284 284.048 55.2684C288.181 58.0775 289.225 65.1107 284.899 69.8792Z" fill="white"/>
<mask id="mask0_64_144" style="mask-type:luminance" maskUnits="userSpaceOnUse" x="255" y="53" width="33" height="30">
<path d="M284.899 69.8792L272.006 82.6724L259.213 69.7792C255.179 66.1809 254.829 60.2255 257.771 56.7061C261.065 52.7655 268.009 52.4478 272.106 56.9861C275.605 53.5495 280.752 53.0284 284.048 55.2684C288.181 58.0775 289.225 65.1107 284.899 69.8792Z" fill="white"/>
</mask>
<g mask="url(#mask0_64_144)">
<path d="M267.554 75.7111C267.538 79.8774 265.857 83.2488 263.799 83.2408C261.741 83.2328 260.087 79.8488 260.103 75.6826C260.119 71.5163 261.8 68.1448 263.858 68.1528C265.915 68.1603 267.57 71.5443 267.554 75.7111Z" fill="#FF60E6"/>
<path d="M266.924 64.0432C266.917 65.7278 265.547 67.0878 263.862 67.0815C262.177 67.0752 260.817 65.7043 260.824 64.0198C260.83 62.3352 262.201 60.9746 263.885 60.9815C265.57 60.9878 266.931 62.3586 266.924 64.0432Z" fill="#FF60E6"/>
<path d="M276.192 81.8449C276.176 86.0112 274.495 89.3826 272.437 89.3746C270.379 89.3666 268.724 85.9826 268.741 81.8164C268.757 77.6501 270.438 74.2786 272.496 74.2866C274.553 74.2946 276.208 77.6786 276.192 81.8449Z" fill="#FF60E6"/>
<path d="M275.562 70.1771C275.556 71.8616 274.185 73.2222 272.5 73.2153C270.816 73.2085 269.456 71.8376 269.462 70.1531C269.468 68.4685 270.84 67.1079 272.524 67.1148C274.208 67.1216 275.568 68.4925 275.562 70.1771Z" fill="#FF60E6"/>
<path d="M284.877 75.778C284.861 79.9443 283.18 83.3157 281.122 83.3077C279.064 83.2997 277.409 79.9157 277.426 75.7495C277.442 71.5832 279.123 68.2117 281.181 68.2197C283.239 68.2277 284.893 71.6117 284.877 75.778Z" fill="#FF60E6"/>
<path d="M284.247 64.1101C284.241 65.7947 282.869 67.1547 281.185 67.1484C279.5 67.1421 278.14 65.7712 278.147 64.0867C278.153 62.4021 279.524 61.0415 281.208 61.0484C282.893 61.0547 284.253 62.4255 284.247 64.1101Z" fill="#FF60E6"/>
</g>
</g>
<rect x="348" width="120" height="120" rx="60" fill="#FFADF2"/>
<path fill-rule="evenodd" clip-rule="evenodd" d="M386.354 40.6295C391.078 43.4265 398.515 54.9788 402.544 57.4139C407.999 60.7108 411.729 57.9035 416.436 54.2512C423.225 48.9836 429.489 46.3216 432.145 45.7711C436.798 44.8061 440.374 48.4974 440.823 52.3036C441.52 58.2088 439.703 63.4117 436.906 68.7248C434.631 73.0485 418.941 90.4739 407.521 91.6567C402.471 92.1797 399.345 89.7596 394.391 85.6023C388.048 80.278 384.819 76.6815 380.531 69.3075C377.818 64.6413 375.575 57.7942 375.06 52.3717C374.623 47.7711 376.391 34.7312 386.354 40.6295Z" fill="#C622AC"/>
<mask id="mask1_64_144" style="mask-type:luminance" maskUnits="userSpaceOnUse" x="375" y="39" width="66" height="53">
<path d="M386.354 40.6295C391.078 43.4265 398.515 54.9788 402.544 57.4139C407.999 60.7108 411.729 57.9035 416.436 54.2512C423.225 48.9836 429.489 46.3216 432.145 45.7711C436.798 44.8061 440.374 48.4974 440.823 52.3036C441.52 58.2088 439.703 63.4117 436.906 68.7248C434.631 73.0485 418.941 90.4739 407.521 91.6567C402.471 92.1797 399.345 89.7596 394.391 85.6023C388.048 80.278 384.819 76.6815 380.531 69.3075C377.818 64.6413 375.575 57.7942 375.06 52.3717C374.623 47.7711 376.391 34.7312 386.354 40.6295Z" fill="white"/>
</mask>
<g mask="url(#mask1_64_144)">
<path fill-rule="evenodd" clip-rule="evenodd" d="M396.994 92.4836C397.965 88.6856 398.806 70.9352 395.413 64.588C392.882 59.8545 390.151 54.9856 388.497 49.8302C387.941 48.0964 387.1 45.711 388.009 43.9353C389.153 41.7004 390.869 44.1565 391.953 45.4525C395.632 49.8521 398.984 56.4809 404.956 58.1452C410.359 59.6513 413.355 55.9703 418.719 53.0263C420.306 52.1551 425.018 49.0203 426.922 51.0302C428.954 53.1742 422.262 57.4203 420.09 60.9645C418.637 63.3345 417.395 66.0778 416.845 68.1293C414.422 77.1637 418.802 85.2211 420.047 94.0467" fill="#FF60E6"/>
</g>
<path fill-rule="evenodd" clip-rule="evenodd" d="M396.953 28.2764C400.254 28.2764 402.933 30.9331 402.933 34.2051C402.933 37.478 400.253 40.1343 396.953 40.1343C393.652 40.1343 390.972 37.4776 390.972 34.2051C390.972 30.9331 393.652 28.2764 396.953 28.2764Z" fill="#C622AC"/>
<path d="M423.928 44.9595C427.231 44.9595 429.909 42.3049 429.909 39.0303C429.909 35.7557 427.231 33.1011 423.928 33.1011C420.625 33.1011 417.948 35.7557 417.948 39.0303C417.948 42.3049 420.625 44.9595 423.928 44.9595Z" fill="#C622AC"/>
<path d="M409.306 52.6607C412.067 52.6607 414.305 50.442 414.305 47.7051C414.305 44.9682 412.067 42.7495 409.306 42.7495C406.545 42.7495 404.308 44.9682 404.308 47.7051C404.308 50.442 406.545 52.6607 409.306 52.6607Z" fill="#FF60E6"/>
<rect x="484" width="120" height="120" rx="60" fill="#FFADF2"/>
<path fill-rule="evenodd" clip-rule="evenodd" d="M538.066 31C539.834 31 541.266 32.4328 541.266 34.2C541.266 35.9677 539.834 37.4005 538.066 37.4005C536.299 37.4005 534.866 35.9677 534.866 34.2C534.866 32.4328 536.299 31 538.066 31Z" fill="#C622AC"/>
<path fill-rule="evenodd" clip-rule="evenodd" d="M543.24 54.9261C534.656 48.8763 528.506 38.809 529.542 31.2798C530.912 34.9134 533.127 39.8999 539.932 41.4345C542.287 37.2789 545.622 33.0356 550.321 31.2798C545.562 37.2085 544.764 45.3032 543.24 54.9261Z" fill="white"/>
<path fill-rule="evenodd" clip-rule="evenodd" d="M516.02 50.3667C516.903 48.8361 518.86 48.3117 520.391 49.1953C521.921 50.0789 522.445 52.0361 521.562 53.5667C520.679 55.0972 518.721 55.6216 517.191 54.738C515.66 53.8544 515.136 51.8972 516.02 50.3667Z" fill="#C622AC"/>
<path fill-rule="evenodd" clip-rule="evenodd" d="M539.327 57.8488C529.796 62.2588 518.003 62.5505 512 57.8885C515.832 58.5195 521.258 59.0945 525.989 53.9686C523.568 49.8507 521.561 44.8409 522.389 39.894C525.144 46.9792 531.755 51.7182 539.327 57.8488Z" fill="#FF60E6"/>
<path fill-rule="evenodd" clip-rule="evenodd" d="M521.706 78.9553C520.822 77.4248 521.347 75.4676 522.877 74.584C524.408 73.7004 526.365 74.2248 527.248 75.7553C528.132 77.2859 527.608 79.2431 526.077 80.1267C524.547 81.0108 522.589 80.4864 521.706 78.9553Z" fill="#C622AC"/>
<path fill-rule="evenodd" clip-rule="evenodd" d="M539.839 62.5112C538.892 72.9705 533.249 83.3296 526.21 86.1977C528.672 83.1946 531.883 78.7831 529.81 72.1231C525.033 72.1608 519.691 71.3938 515.821 68.2033C523.334 69.3597 530.744 66.0039 539.839 62.5112Z" fill="white"/>
<path fill-rule="evenodd" clip-rule="evenodd" d="M549.439 88.5724C547.671 88.5724 546.239 87.1395 546.239 85.3724C546.239 83.6047 547.671 82.1724 549.439 82.1724C551.206 82.1724 552.639 83.6052 552.639 85.3724C552.639 87.14 551.206 88.5724 549.439 88.5724Z" fill="#C622AC"/>
<path fill-rule="evenodd" clip-rule="evenodd" d="M544.264 64.6465C552.849 70.6957 558.998 80.7631 557.962 88.2923C556.593 84.6586 554.378 79.6721 547.574 78.1376C545.218 82.2936 541.883 86.536 537.184 88.2923C541.943 82.3636 542.741 74.2693 544.264 64.6465Z" fill="#FF60E6"/>
<path fill-rule="evenodd" clip-rule="evenodd" d="M571.485 69.699C570.602 71.2295 568.644 71.7539 567.114 70.8703C565.583 69.9867 565.058 68.029 565.942 66.499C566.826 64.9685 568.783 64.4441 570.313 65.3276C571.844 66.2112 572.369 68.1684 571.485 69.699Z" fill="#C622AC"/>
<path fill-rule="evenodd" clip-rule="evenodd" d="M548.178 62.2173C557.709 57.8077 569.503 57.5155 575.505 62.1776C571.673 61.5465 566.247 60.9715 561.517 66.098C563.938 70.2153 565.945 75.2256 565.116 80.172C562.361 73.0869 555.75 68.3479 548.178 62.2173Z" fill="white"/>
<path fill-rule="evenodd" clip-rule="evenodd" d="M565.8 40.6167C566.683 42.1472 566.159 44.1044 564.628 44.988C563.098 45.8716 561.141 45.3472 560.257 43.8167C559.373 42.2861 559.898 40.3289 561.428 39.4453C562.958 38.5617 564.916 39.0861 565.8 40.6167Z" fill="#C622AC"/>
<path fill-rule="evenodd" clip-rule="evenodd" d="M547.666 57.0609C548.612 46.6017 554.256 36.2426 561.295 33.375C558.833 36.378 555.621 40.7896 557.695 47.4495C562.472 47.4113 567.814 48.1788 571.684 51.3694C564.171 50.2129 556.761 53.5687 547.666 57.0609Z" fill="#FF60E6"/>
<defs>
<clipPath id="clip0_64_144">
<rect width="62.3562" height="64" fill="white" transform="translate(-31 28)"/>
</clipPath>
<clipPath id="clip1_64_144">
<rect width="71.9571" height="64" fill="white" transform="translate(100 28)"/>
</clipPath>
<clipPath id="clip2_64_144">
<rect width="60" height="64" fill="white" transform="translate(242 28)"/>
</clipPath>
</defs>
</svg>
